<?xml version="1.0" encoding="utf-8"?>
<!-- Generator: Adobe Illustrator 25.0.0, SVG Export Plug-In . SVG Version: 6.00 Build 0)  -->
<svg version="1.1" id="Livello_1" xmlns="http://www.w3.org/2000/svg" xmlns:xlink="http://www.w3.org/1999/xlink" x="0px" y="0px"
	 viewBox="0 0 54 54" style="enable-background:new 0 0 54 54;" xml:space="preserve">
<style type="text/css">
	.st0{fill:#82AFC1;}
</style>
<path class="st0" d="M39.8,4.3c-0.4-2.1-2.3-3.7-4.5-3.7c-0.5,0-0.9,0.4-0.9,0.9c0,0.5,0.4,0.9,0.9,0.9c1.5,0,2.8,1.2,2.8,2.8
	S36.8,8,35.3,8c-0.5,0-0.9,0.4-0.9,0.9s0.4,0.9,0.9,0.9c2.2,0,4.1-1.6,4.5-3.7H52v6.5H40.8H39H27.8H26H14.9H13H1.9V6.1h13h2.8
	c0.5,0,0.9-0.4,0.9-0.9s-0.4-0.9-0.9-0.9h-1.7c0.4-1.1,1.4-1.9,2.6-1.9c1.5,0,2.8,1.2,2.8,2.8S20.1,8,18.6,8c-0.5,0-0.9,0.4-0.9,0.9
	s0.4,0.9,0.9,0.9c2.6,0,4.6-2.1,4.6-4.6s-2.1-4.6-4.6-4.6c-2.2,0-4.1,1.6-4.5,3.7H0v8.4v2.8v10.2v1.9v11.1v1.9v13h13h1.9H26h1.9H39
	h1.9h13v-13v-1.9V27.5v-1.9V15.4v-2.8V4.3H39.8z M27.8,14.5H39v11.1H27.8V14.5z M39,38.6H27.8V27.5H39V38.6z M14.9,27.5H26v11.1
	H14.9V27.5z M14.9,14.5H26v11.1H14.9V14.5z M1.9,15.4v-0.9H13v11.1H1.9V15.4z M1.9,27.5H13v11.1H1.9V27.5z M1.9,51.6V40.5H13v11.1
	H1.9z M14.9,51.6V40.5H26v11.1H14.9z M27.8,51.6V40.5H39v11.1H27.8z M52,51.6H40.8V40.5H52V51.6z M52,38.6H40.8V27.5H52V38.6z
	 M40.8,25.6V14.5H52v0.9v10.2H40.8z"/>
<path class="st0" d="M24.1,2.4c1.5,0,2.8,1.2,2.8,2.8S25.7,8,24.1,8c-0.5,0-0.9,0.4-0.9,0.9s0.4,0.9,0.9,0.9c2.6,0,4.6-2.1,4.6-4.6
	c0-2.6-2.1-4.6-4.6-4.6c-0.5,0-0.9,0.4-0.9,0.9C23.2,2,23.6,2.4,24.1,2.4z"/>
<path class="st0" d="M29.7,2.4c1.5,0,2.8,1.2,2.8,2.8S31.2,8,29.7,8c-0.5,0-0.9,0.4-0.9,0.9s0.4,0.9,0.9,0.9c2.6,0,4.6-2.1,4.6-4.6
	c0-2.6-2.1-4.6-4.6-4.6c-0.5,0-0.9,0.4-0.9,0.9C28.8,2,29.2,2.4,29.7,2.4z"/>
<path class="st0" d="M29,37.4c0.2,0.2,0.4,0.3,0.7,0.3s0.5-0.1,0.7-0.3l3.1-3.1l3.1,3.1c0.2,0.2,0.4,0.3,0.7,0.3
	c0.2,0,0.5-0.1,0.7-0.3c0.4-0.4,0.4-0.9,0-1.3L34.7,33l3.1-3.1c0.4-0.4,0.4-0.9,0-1.3s-0.9-0.4-1.3,0l-3.1,3.1l-3.1-3.1
	c-0.4-0.4-0.9-0.4-1.3,0s-0.4,0.9,0,1.3l3.1,3.1L29,36.1C28.7,36.5,28.7,37,29,37.4z"/>
</svg>
