<svg width="54" height="54" viewBox="0 0 54 54" fill="none" xmlns="http://www.w3.org/2000/svg">
<path d="M39.8162 4.26062C39.3846 2.14539 37.5107 0.548065 35.2693 0.548065C34.7569 0.548065 34.3411 0.962943 34.3411 1.4762C34.3411 1.98946 34.7569 2.40434 35.2693 2.40434C36.8044 2.40434 38.0537 3.65362 38.0537 5.18876C38.0537 6.7239 36.8044 7.97317 35.2693 7.97317C34.7569 7.97317 34.3411 8.38805 34.3411 8.90131C34.3411 9.41457 34.7569 9.82945 35.2693 9.82945C37.5098 9.82945 39.3846 8.23212 39.8162 6.1169H51.9758V12.6139H40.8381H38.9818H27.8442H25.9879H14.8502H12.9939H1.85628V6.1169H14.8502H17.6346C18.147 6.1169 18.5628 5.70202 18.5628 5.18876C18.5628 4.6755 18.147 4.26062 17.6346 4.26062H15.9491C16.3334 3.18212 17.3543 2.40434 18.5628 2.40434C20.0979 2.40434 21.3472 3.65362 21.3472 5.18876C21.3472 6.7239 20.0979 7.97317 18.5628 7.97317C18.0504 7.97317 17.6346 8.38805 17.6346 8.90131C17.6346 9.41457 18.0504 9.82945 18.5628 9.82945C21.1216 9.82945 23.2035 7.74764 23.2035 5.18876C23.2035 2.62988 21.1216 0.548065 18.5628 0.548065C16.3222 0.548065 14.4474 2.14539 14.0158 4.26062H0V12.6139V15.3983V25.6078V27.4641V38.6017V40.458V53.452H12.9939H14.8502H25.9879H27.8442H38.9818H40.8381H53.832V40.458V38.6017V27.4641V25.6078V15.3983V12.6139V4.26062H39.8162ZM27.8442 14.4701H38.9818V25.6078H27.8442V14.4701ZM38.9818 38.6017H27.8442V27.4641H38.9818V38.6017ZM14.8502 27.4641H25.9879V38.6017H14.8502V27.4641ZM14.8502 14.4701H25.9879V25.6078H14.8502V14.4701ZM1.85628 15.3983V14.4701H12.9939V25.6078H1.85628V15.3983ZM1.85628 27.4641H12.9939V38.6017H1.85628V27.4641ZM1.85628 51.5957V40.458H12.9939V51.5957H1.85628ZM14.8502 51.5957V40.458H25.9879V51.5957H14.8502ZM27.8442 51.5957V40.458H38.9818V51.5957H27.8442ZM51.9758 51.5957H40.8381V40.458H51.9758V51.5957ZM51.9758 38.6017H40.8381V27.4641H51.9758V38.6017ZM40.8381 25.6078V14.4701H51.9758V15.3983V25.6078H40.8381Z" fill="black"/>
<path d="M24.1316 2.40434C25.6668 2.40434 26.916 3.65362 26.916 5.18876C26.916 6.7239 25.6668 7.97317 24.1316 7.97317C23.6193 7.97317 23.2035 8.38805 23.2035 8.90131C23.2035 9.41457 23.6193 9.82945 24.1316 9.82945C26.6905 9.82945 28.7723 7.74763 28.7723 5.18876C28.7723 2.62988 26.6905 0.548065 24.1316 0.548065C23.6193 0.548065 23.2035 0.962943 23.2035 1.4762C23.2035 1.98946 23.6193 2.40434 24.1316 2.40434Z" fill="black"/>
<path d="M29.7004 2.40434C31.2356 2.40434 32.4848 3.65362 32.4848 5.18876C32.4848 6.7239 31.2356 7.97317 29.7004 7.97317C29.1881 7.97317 28.7723 8.38805 28.7723 8.90131C28.7723 9.41457 29.1881 9.82945 29.7004 9.82945C32.2593 9.82945 34.3411 7.74763 34.3411 5.18876C34.3411 2.62988 32.2593 0.548065 29.7004 0.548065C29.1881 0.548065 28.7723 0.962943 28.7723 1.4762C28.7723 1.98946 29.1881 2.40434 29.7004 2.40434Z" fill="black"/>
<path d="M29.0443 37.4017C29.2253 37.5827 29.4629 37.6736 29.7005 37.6736C29.9381 37.6736 30.1757 37.5827 30.3567 37.4017L33.413 34.3453L36.4694 37.4017C36.6504 37.5827 36.888 37.6736 37.1256 37.6736C37.3632 37.6736 37.6008 37.5827 37.7818 37.4017C38.1447 37.0388 38.1447 36.4522 37.7818 36.0893L34.7254 33.0329L37.7818 29.9766C38.1447 29.6137 38.1447 29.0271 37.7818 28.6642C37.4189 28.3013 36.8323 28.3013 36.4694 28.6642L33.413 31.7205L30.3567 28.6642C29.9938 28.3013 29.4072 28.3013 29.0443 28.6642C28.6814 29.0271 28.6814 29.6137 29.0443 29.9766L32.1006 33.0329L29.0443 36.0893C28.6814 36.4522 28.6814 37.0388 29.0443 37.4017Z" fill="black"/>
</svg>
