<?xml version="1.0" encoding="utf-8"?>
<!-- Generator: Adobe Illustrator 25.0.0, SVG Export Plug-In . SVG Version: 6.00 Build 0)  -->
<svg version="1.1" id="Capa_1" xmlns="http://www.w3.org/2000/svg" xmlns:xlink="http://www.w3.org/1999/xlink" x="0px" y="0px"
	 viewBox="0 0 512 512" style="enable-background:new 0 0 512 512;" xml:space="preserve">
<style type="text/css">
	.st0{fill:#394A59;}
</style>
<g>
	<path class="st0" d="M146.2,175.4H37.7c-4.2,0-7.5,3.4-7.5,7.5v262.4c0,4.2,3.4,7.5,7.5,7.5h436.7c4.2,0,7.5-3.4,7.5-7.5V182.9
		c0-4.2-3.4-7.5-7.5-7.5h-298c-4.2,0-7.5,3.4-7.5,7.5s3.4,7.5,7.5,7.5h290.5v247.3H45.2V190.4h101c4.2,0,7.5-3.4,7.5-7.5
		C153.7,178.7,150.3,175.4,146.2,175.4L146.2,175.4z"/>
	<path class="st0" d="M484.4,145.3h-33.2L286.8,64.1c0.4-1.9,0.6-3.8,0.6-5.8c0-16.1-13.1-29.3-29.3-29.3s-29.3,13.1-29.3,29.3
		c0,2,0.2,3.9,0.6,5.8L65.1,145.3H27.6C12.4,145.3,0,157.7,0,172.9v282.3c0,15.2,12.4,27.6,27.6,27.6h320.8c4.2,0,7.5-3.4,7.5-7.5
		s-3.4-7.5-7.5-7.5H27.6c-6.9,0-12.6-5.6-12.6-12.6V172.9c0-6.9,5.6-12.6,12.6-12.6h287.7c4.2,0,7.5-3.4,7.5-7.5s-3.4-7.5-7.5-7.5
		H99.1l137-67.7c5.4,6.1,13.2,10,22,10s16.6-3.9,22-10l137,67.7h-71.7c-4.2,0-7.5,3.4-7.5,7.5s3.4,7.5,7.5,7.5h138.9
		c6.9,0,12.6,5.6,12.6,12.6v282.3c0,6.9-5.6,12.6-12.6,12.6H378.6c-4.2,0-7.5,3.4-7.5,7.5s3.4,7.5,7.5,7.5h105.8
		c15.2,0,27.6-12.4,27.6-27.6V172.9C512,157.7,499.6,145.3,484.4,145.3L484.4,145.3z M258.1,72.5c-7.8,0-14.2-6.4-14.2-14.2
		s6.4-14.2,14.2-14.2c7.8,0,14.2,6.4,14.2,14.2C272.3,66.2,266,72.5,258.1,72.5z"/>
	<path class="st0" d="M128.3,275.8c4.2,0,7.5-3.4,7.5-7.5s-3.4-7.5-7.5-7.5H96c-4.2,0-7.5,3.4-7.5,7.5v80.6c0,0,0,0,0,0s0,0,0,0
		c0,4.2,3.4,7.5,7.5,7.5h32.4c4.2,0,7.5-3.4,7.5-7.5s-3.4-7.5-7.5-7.5h-24.8v-25.2h24.8c4.2,0,7.5-3.4,7.5-7.5s-3.4-7.5-7.5-7.5
		h-24.8v-25.2L128.3,275.8L128.3,275.8z"/>
	<path class="st0" d="M234.1,356.4h32.4c4.2,0,7.5-3.4,7.5-7.5s-3.4-7.5-7.5-7.5h-24.8v-25.2h24.8c4.2,0,7.5-3.4,7.5-7.5
		s-3.4-7.5-7.5-7.5h-24.8v-25.2h24.8c4.2,0,7.5-3.4,7.5-7.5s-3.4-7.5-7.5-7.5h-32.4c-4.2,0-7.5,3.4-7.5,7.5v80.6c0,0,0,0,0,0
		s0,0,0,0C226.6,353.1,230,356.4,234.1,356.4L234.1,356.4z"/>
	<path class="st0" d="M145.4,270.3l21.1,75.8c1.7,6.2,7.2,10.3,13.6,10.3c6.4,0,11.9-4.1,13.6-10.3l21.1-75.8c1.1-4-1.2-8.2-5.2-9.3
		c-4-1.1-8.2,1.2-9.3,5.2l-20.2,72.5l-20.2-72.5c-1.1-4-5.3-6.4-9.3-5.2C146.7,262.2,144.3,266.3,145.4,270.3L145.4,270.3z"/>
	<path class="st0" d="M304.8,348.9v-51.8l31.2,55.5c1.8,3.1,5.6,4.6,9,3.4c3-1,5.1-3.9,5.1-7.1v-80.6c0-4.2-3.4-7.5-7.5-7.5
		s-7.5,3.4-7.5,7.5v51.8l-31.2-55.5c-1.7-3-5.2-4.5-8.5-3.6c-3.3,0.9-5.6,3.9-5.6,7.3v80.6c0,4.2,3.4,7.5,7.5,7.5
		C301.4,356.4,304.8,353,304.8,348.9z"/>
	<path class="st0" d="M394.3,356.4c4.2,0,7.5-3.4,7.5-7.5v-73h18.5c4.2,0,7.5-3.4,7.5-7.5s-3.4-7.5-7.5-7.5h-52
		c-4.2,0-7.5,3.4-7.5,7.5s3.4,7.5,7.5,7.5h18.5v73C386.8,353.1,390.2,356.4,394.3,356.4L394.3,356.4z"/>
</g>
</svg>
