<svg width="47" height="42" viewBox="0 0 47 42" fill="none" xmlns="http://www.w3.org/2000/svg">
<path d="M44.3537 6.81668H22.151V2.99868C22.151 1.72218 21.1129 0.68335 19.8357 0.68335H2.98434C1.70707 0.68335 0.669006 1.72142 0.669006 2.99868V13.7167V15.25V39.0013C0.669006 40.2778 1.70707 41.3167 2.98434 41.3167H44.3537C45.6302 41.3167 46.669 40.2786 46.669 39.0013V15.25V13.7167V9.13202C46.669 7.85475 45.6309 6.81668 44.3537 6.81668ZM45.1357 39.0013C45.1357 39.433 44.7853 39.7833 44.3537 39.7833H2.98434C2.55271 39.7833 2.20234 39.433 2.20234 39.0013V15.25H45.1357V39.0013ZM2.20234 13.7167V2.99868C2.20234 2.56705 2.55271 2.21668 2.98434 2.21668H19.8357C20.2665 2.21668 20.6177 2.56705 20.6177 2.99868V8.35002H44.3537C44.7853 8.35002 45.1357 8.70038 45.1357 9.13202V13.7167H2.20234Z" fill="black"/>
</svg>
