<?xml version="1.0" encoding="utf-8"?>
<!-- Generator: Adobe Illustrator 25.0.0, SVG Export Plug-In . SVG Version: 6.00 Build 0)  -->
<svg version="1.1" id="Livello_1" xmlns="http://www.w3.org/2000/svg" xmlns:xlink="http://www.w3.org/1999/xlink" x="0px" y="0px"
	 viewBox="0 0 48 52" style="enable-background:new 0 0 48 52;" xml:space="preserve">
<style type="text/css">
	.st0{fill:#60A7C0;}
</style>
<path class="st0" d="M12.9,31.4h-2.2c-1.4,0-2.6,1.1-2.6,2.6v4.4c0,1.4,1.2,2.6,2.6,2.6h2.2c1.4,0,2.6-1.1,2.6-2.6v-4.4
	C15.5,32.5,14.3,31.4,12.9,31.4z M13.9,38.3c0,0.6-0.5,1.1-1.1,1.1h-2.2c-0.6,0-1.1-0.5-1.1-1.1v-4.4c0-0.6,0.5-1.1,1.1-1.1h2.2
	c0.6,0,1.1,0.5,1.1,1.1V38.3z"/>
<path class="st0" d="M15.5,20.9c0-1.4-1.2-2.6-2.6-2.6h-2.2c-1.4,0-2.6,1.1-2.6,2.6v4.4c0,1.4,1.2,2.6,2.6,2.6h2.2
	c1.4,0,2.6-1.1,2.6-2.6V20.9z M13.9,25.3c0,0.6-0.5,1.1-1.1,1.1h-2.2c-0.6,0-1.1-0.5-1.1-1.1v-4.4c0-0.6,0.5-1.1,1.1-1.1h2.2
	c0.6,0,1.1,0.5,1.1,1.1V25.3z"/>
<path class="st0" d="M23.1,18.4c-1.4,0-2.6,1.1-2.6,2.6v4.4c0,1.4,1.2,2.6,2.6,2.6h2.2c1.4,0,2.6-1.1,2.6-2.6v-4.4
	c0-1.4-1.2-2.6-2.6-2.6H23.1z M26.4,20.9v4.4c0,0.6-0.5,1.1-1.1,1.1h-2.2c-0.6,0-1.1-0.5-1.1-1.1v-4.4c0-0.6,0.5-1.1,1.1-1.1h2.2
	C26,19.9,26.4,20.3,26.4,20.9z"/>
<path class="st0" d="M37.9,31.4h-2.2c-1.4,0-2.6,1.1-2.6,2.6v4.4c0,1.4,1.2,2.6,2.6,2.6h2.2c1.4,0,2.6-1.1,2.6-2.6v-4.4
	C40.5,32.5,39.3,31.4,37.9,31.4z M38.9,38.3c0,0.6-0.5,1.1-1.1,1.1h-2.2c-0.6,0-1.1-0.5-1.1-1.1v-4.4c0-0.6,0.5-1.1,1.1-1.1h2.2
	c0.6,0,1.1,0.5,1.1,1.1V38.3z"/>
<path class="st0" d="M40.5,20.9c0-1.4-1.2-2.6-2.6-2.6h-2.2c-1.4,0-2.6,1.1-2.6,2.6v4.4c0,1.4,1.2,2.6,2.6,2.6h2.2
	c1.4,0,2.6-1.1,2.6-2.6V20.9z M38.9,25.3c0,0.6-0.5,1.1-1.1,1.1h-2.2c-0.6,0-1.1-0.5-1.1-1.1v-4.4c0-0.6,0.5-1.1,1.1-1.1h2.2
	c0.6,0,1.1,0.5,1.1,1.1V25.3z"/>
<path class="st0" d="M37.7,9.4c-0.4,0-0.9,0-1.3,0V4.5c0-0.4-0.3-0.7-0.8-0.7c-0.4,0-0.8,0.3-0.8,0.7v5.7c0,0.4,0.3,0.7,0.6,0.7
	c0.2,0,1.8,0,2.2,0c0.4,0,0.8-0.3,0.8-0.8C38.4,9.7,38.1,9.4,37.7,9.4L37.7,9.4z"/>
<path class="st0" d="M14.8,3.7c-0.4,0-0.8,0.3-0.8,0.7v2h-2.5v-2c0-0.4-0.3-0.7-0.8-0.7s-0.8,0.3-0.8,0.7v5.7c0,0.4,0.3,0.7,0.8,0.7
	s0.8-0.3,0.8-0.7V8h2.5v2.2c0,0.4,0.3,0.7,0.8,0.7c0.4,0,0.8-0.3,0.8-0.7V4.5C15.6,4.1,15.2,3.7,14.8,3.7L14.8,3.7z"/>
<path class="st0" d="M32.9,5.3c0.4,0,0.8-0.3,0.8-0.7c0-0.4-0.3-0.7-0.8-0.7h-2.4c-0.4,0-0.8,0.3-0.8,0.7v5.6c0,0.4,0.3,0.7,0.8,0.7
	h2.4c0.4,0,0.8-0.3,0.8-0.7c0-0.4-0.3-0.7-0.8-0.7h-1.6V8.1h1.5c0.4,0,0.8-0.3,0.8-0.7s-0.3-0.7-0.8-0.7h-1.5V5.3H32.9z"/>
<path class="st0" d="M27.9,3.7h-3.2c-0.4,0-0.8,0.3-0.8,0.7c0,0.4,0.3,0.7,0.8,0.7h0.8v4.9c0,0.4,0.3,0.7,0.8,0.7s0.8-0.3,0.8-0.7
	V5.2h0.8c0.4,0,0.8-0.3,0.8-0.7C28.6,4.1,28.3,3.7,27.9,3.7L27.9,3.7z"/>
<path class="st0" d="M20.1,3.7c-2,0-3.6,1.6-3.6,3.6c0,2,1.6,3.6,3.6,3.6c2,0,3.6-1.6,3.6-3.6S22.1,3.7,20.1,3.7L20.1,3.7z
	 M20.1,9.4c-1.2,0-2.1-0.9-2.1-2.1s1-2.1,2.1-2.1c1.2,0,2.1,0.9,2.1,2.1C22.2,8.5,21.3,9.4,20.1,9.4z"/>
<path class="st0" d="M37.1,0.5H11.4c-2.7,0-4.9,2.1-4.9,4.8v8.2c-1.7,1.1-2.9,3-2.9,5.1v15.2c0,0.4,0.3,0.7,0.8,0.7s0.8-0.3,0.8-0.7
	V18.7c0-2.5,2.1-4.6,4.7-4.6h28.9c2.6,0,4.7,2.1,4.7,4.6v4.6c0,0.4,0.3,0.7,0.8,0.7s0.8-0.3,0.8-0.7v-4.6c0-2.2-1.2-4.1-2.9-5.1V5.3
	C42,2.6,39.8,0.5,37.1,0.5L37.1,0.5z M9.8,12.6c-0.6,0-1.2,0.1-1.8,0.3V5.3C8,3.5,9.5,2,11.4,2h25.8c1.8,0,3.4,1.5,3.4,3.3v7.6
	c-0.6-0.2-1.2-0.3-1.8-0.3H9.8z"/>
<path class="st0" d="M3.6,43.6C2,44,0.8,45.5,0.8,47.2v1.9c0,1.3,1.1,2.4,2.5,2.4h41.9c1.4,0,2.5-1.1,2.5-2.4v-1.9
	c0-1.7-1.2-3.2-2.7-3.6V26.2c0-0.4-0.3-0.7-0.8-0.7c-0.4,0-0.8,0.3-0.8,0.7v17.1H30.1v-8.8c0-1.8-1.5-3.2-3.3-3.2h-5.1
	c-1.8,0-3.3,1.5-3.3,3.2v8.8H5.1v-6.5c0-0.4-0.3-0.7-0.8-0.7s-0.8,0.3-0.8,0.7V43.6z M46.1,47.2v1.9c0,0.5-0.4,0.9-1,0.9H3.3
	c-0.5,0-1-0.4-1-0.9v-1.9c0-1.2,0.9-2.2,2.1-2.3h0c0.1,0,0.2,0,0.3,0h39.1c0.1,0,0.2,0,0.3,0h0C45.2,45,46.1,46,46.1,47.2L46.1,47.2
	z M19.9,34.6c0-1,0.8-1.7,1.8-1.7h5.1c1,0,1.8,0.8,1.8,1.7v8.8h-8.7V34.6z"/>
</svg>
