<svg width="439" height="634" viewBox="0 0 439 634" fill="none" xmlns="http://www.w3.org/2000/svg">
<path d="M219.373 1C339.999 1 437.746 98.7895 437.746 219.373C437.746 241.853 427.644 272.602 411.488 307.781C395.349 342.923 373.234 382.349 349.342 422.136C327.737 458.117 304.691 494.373 283.312 528.006C281.051 531.563 278.809 535.091 276.588 538.586C253.859 574.367 233.461 606.729 219.374 631.943C205.846 607.705 185.745 575.535 163.143 539.564C161.411 536.808 159.665 534.03 157.905 531.231C136.194 496.692 112.514 459.02 90.279 421.671C66.2412 381.293 43.9067 341.315 27.5843 306.101C11.241 270.842 1 240.511 1 219.373C1 98.7896 98.7896 1 219.373 1ZM318.426 211.111C318.426 156.57 273.941 112.087 219.373 112.087C164.847 112.087 120.363 156.571 120.363 211.111C120.363 265.637 164.847 310.121 219.373 310.121C273.941 310.121 318.426 265.637 318.426 211.111Z" fill="#E74C3C" stroke="white" stroke-width="2"/>
<ellipse cx="219" cy="218.5" rx="136" ry="136.5" fill="white"/>
<path d="M219 188.667C219 156.268 204.211 130 186 130C167.782 130 153 156.268 153 188.667C153 202.767 161.888 214.713 174.327 219.432L171.333 291.333C171.333 299.433 177.9 306 186 306C194.1 306 200.667 299.433 200.667 291.333L197.673 219.439C210.121 214.713 219 202.767 219 188.667Z" fill="#E74C3C"/>
<path d="M285 183.167L283.167 130H274L272.167 183.167H264.833L263 130H252L250.167 183.167H242.833L241 130H231.833L230 183.167C230 194.352 236.704 203.933 246.3 208.232L242.833 291.333C242.833 299.433 249.4 306 257.5 306C265.6 306 272.167 299.433 272.167 291.333L268.7 208.232C278.296 203.933 285 194.352 285 183.167Z" fill="#E74C3C"/>
</svg>
