<svg width="439" height="634" viewBox="0 0 439 634" fill="none" xmlns="http://www.w3.org/2000/svg">
<path d="M219.373 1C339.999 1 437.746 98.7895 437.746 219.373C437.746 241.853 427.644 272.602 411.488 307.781C395.349 342.923 373.234 382.349 349.342 422.136C327.737 458.117 304.691 494.373 283.312 528.006C281.051 531.563 278.809 535.091 276.588 538.586C253.859 574.367 233.461 606.729 219.374 631.943C205.846 607.705 185.745 575.535 163.143 539.564C161.411 536.808 159.665 534.03 157.905 531.231C136.194 496.692 112.514 459.02 90.279 421.671C66.2412 381.293 43.9067 341.315 27.5843 306.101C11.241 270.842 1 240.511 1 219.373C1 98.7896 98.7896 1 219.373 1ZM318.426 211.111C318.426 156.57 273.941 112.087 219.373 112.087C164.847 112.087 120.363 156.571 120.363 211.111C120.363 265.637 164.847 310.121 219.373 310.121C273.941 310.121 318.426 265.637 318.426 211.111Z" fill="#E74C3C" stroke="white" stroke-width="2"/>
<ellipse cx="220" cy="218.5" rx="136" ry="136.5" fill="white"/>
<path d="M177.093 147.283C175.453 146.818 173.689 147.276 172.484 148.482L158.065 162.901C157.006 163.96 156.514 165.46 156.741 166.941C156.969 168.422 157.887 169.706 159.215 170.398L204.034 193.782L234.313 163.503L177.093 147.283Z" fill="#E74C3C"/>
<path d="M268.177 279.36C268.87 280.688 270.154 281.607 271.634 281.834C271.873 281.87 272.111 281.888 272.348 281.888C273.586 281.888 274.785 281.399 275.674 280.51L290.093 266.091C291.299 264.886 291.758 263.122 291.293 261.482L275.072 204.262L244.793 234.541L268.177 279.36Z" fill="#E74C3C"/>
<path d="M286.231 138.115C276.38 139.44 267.083 144.04 260.053 151.069L190.302 220.82L158.334 211.968C156.702 211.516 154.951 211.977 153.752 213.176L141.378 225.549C140.332 226.595 139.839 228.071 140.047 229.535C140.254 230.999 141.137 232.281 142.432 232.995L183.129 255.447L205.58 296.144C206.294 297.438 207.576 298.322 209.04 298.529C209.26 298.56 209.48 298.575 209.7 298.575C210.938 298.575 212.137 298.086 213.026 297.197L225.4 284.823C226.598 283.625 227.059 281.875 226.607 280.241L217.755 248.273L287.506 178.522C294.535 171.493 299.136 162.196 300.46 152.344C300.991 148.4 299.681 144.523 296.866 141.709C294.052 138.895 290.175 137.586 286.231 138.115Z" fill="#E74C3C"/>
</svg>
