<svg width="439" height="634" viewBox="0 0 439 634" fill="none" xmlns="http://www.w3.org/2000/svg">
<path d="M219.373 1C339.999 1 437.746 98.7895 437.746 219.373C437.746 241.853 427.644 272.602 411.488 307.781C395.349 342.923 373.234 382.349 349.342 422.136C327.738 458.115 304.693 494.368 283.316 528C281.053 531.559 278.81 535.089 276.588 538.586C253.859 574.367 233.461 606.729 219.374 631.943C205.846 607.705 185.745 575.535 163.143 539.564C161.41 536.807 159.663 534.028 157.904 531.228C136.192 496.689 112.513 459.019 90.279 421.671C66.2412 381.293 43.9067 341.315 27.5843 306.101C11.241 270.842 1 240.511 1 219.373C1 98.7896 98.7896 1 219.373 1ZM318.426 211.111C318.426 156.57 273.941 112.087 219.373 112.087C164.847 112.087 120.363 156.571 120.363 211.111C120.363 265.637 164.847 310.121 219.373 310.121C273.941 310.121 318.426 265.637 318.426 211.111Z" fill="#E74C3C" stroke="white" stroke-width="2"/>
<ellipse cx="221" cy="218.5" rx="136" ry="136.5" fill="white"/>
<path d="M225.92 160.239L235.879 165.685L241.326 175.644C241.631 176.202 242.216 176.549 242.852 176.549C243.488 176.549 244.073 176.202 244.378 175.644L249.825 165.685L259.784 160.239C260.342 159.933 260.688 159.348 260.688 158.713C260.688 158.077 260.342 157.492 259.784 157.186L249.825 151.74L244.378 141.781C244.073 141.223 243.488 140.876 242.852 140.876C242.216 140.876 241.631 141.223 241.326 141.781L235.879 151.74L225.92 157.187C225.363 157.492 225.016 158.077 225.016 158.713C225.016 159.349 225.363 159.933 225.92 160.239Z" fill="#E74C3C"/>
<path d="M218.59 183.953C221.21 183.953 223.333 181.829 223.333 179.21C223.333 176.591 221.21 174.467 218.59 174.467C215.971 174.467 213.848 176.591 213.848 179.21C213.848 181.829 215.971 183.953 218.59 183.953Z" fill="#E74C3C"/>
<path d="M264.216 234.724C262.364 236.576 262.364 239.579 264.216 241.431C266.069 243.283 269.071 243.283 270.924 241.431C272.776 239.579 272.776 236.576 270.924 234.724C269.071 232.871 266.068 232.871 264.216 234.724Z" fill="#E74C3C"/>
<path d="M265.916 186.026C268.536 186.026 270.659 183.903 270.659 181.284C270.659 178.664 268.536 176.541 265.916 176.541C263.297 176.541 261.173 178.664 261.173 181.284C261.173 183.903 263.297 186.026 265.916 186.026Z" fill="#E74C3C"/>
<path d="M190.45 167.096C190.975 167.283 191.511 167.372 192.039 167.372C193.989 167.372 195.817 166.159 196.508 164.216L201.493 150.194C202.371 147.726 201.081 145.014 198.613 144.136C196.144 143.258 193.432 144.548 192.555 147.016L187.57 161.038C186.692 163.506 187.982 166.219 190.45 167.096Z" fill="#E74C3C"/>
<path d="M298.421 185.367C295.881 184.727 293.303 186.267 292.663 188.806L289.379 201.831C286.779 200.254 284.278 198.504 281.91 196.604C280.027 195.094 277.479 194.74 275.258 195.683C273.041 196.623 271.525 198.698 271.304 201.097C270.962 204.795 270.693 208.537 270.501 212.269C267.971 210.975 265.458 209.59 263 208.235C261.186 207.235 259.31 206.201 257.441 205.211C255.409 204.134 253.016 204.195 251.038 205.374C249.06 206.554 247.867 208.633 247.848 210.935C247.812 215.212 247.808 219.553 247.836 223.837C247.853 226.446 249.973 228.55 252.579 228.55H252.61C255.229 228.533 257.339 226.395 257.322 223.776C257.306 221.172 257.301 218.548 257.308 215.93C257.681 216.135 258.052 216.34 258.421 216.543C262.314 218.689 266.34 220.908 270.521 222.826C272.517 223.741 274.823 223.6 276.691 222.447C278.553 221.298 279.71 219.307 279.787 217.121C279.901 213.842 280.078 210.539 280.316 207.248C282.859 209.016 285.509 210.637 288.235 212.091C289.815 212.934 291.592 213.082 293.237 212.507C295.07 211.868 296.569 210.384 297.459 208.331C297.562 208.096 297.644 207.852 297.707 207.604L301.861 191.125C302.501 188.585 300.961 186.007 298.421 185.367V185.367Z" fill="#E74C3C"/>
<path d="M287.612 166.601C295.51 166.601 301.913 160.198 301.913 152.3C301.913 144.402 295.51 138 287.612 138C279.714 138 273.312 144.402 273.312 152.3C273.312 160.198 279.714 166.601 287.612 166.601Z" fill="#E74C3C"/>
<path d="M228.529 202.04C229.1 202.04 229.682 201.936 230.247 201.717L244.117 196.325C246.558 195.375 247.768 192.627 246.819 190.185C245.87 187.744 243.121 186.534 240.68 187.483L226.809 192.875C224.368 193.824 223.158 196.573 224.107 199.014C224.837 200.891 226.63 202.04 228.529 202.04Z" fill="#E74C3C"/>
<path d="M154.875 262.077L191.676 279.018L215.258 268.697L163.329 242.83L154.875 262.077Z" fill="#E74C3C"/>
<path d="M167.25 233.904L224.106 262.225L175.958 214.078L167.25 233.904Z" fill="#E74C3C"/>
<path d="M191.463 186.012C189.406 183.955 186.71 182.926 184.013 182.926C181.317 182.926 178.621 183.955 176.563 186.012C172.449 190.127 172.449 196.797 176.563 200.912L239.958 264.307C242.016 266.364 244.712 267.393 247.408 267.393C250.105 267.393 252.801 266.364 254.858 264.307C258.973 260.192 258.973 253.522 254.858 249.407L191.463 186.012Z" fill="#E74C3C"/>
<path d="M140.281 295.301C139.08 298.035 141.861 300.82 144.596 299.623L179.738 284.243L150.957 270.994L140.281 295.301Z" fill="#E74C3C"/>
</svg>
