<svg width="439" height="634" viewBox="0 0 439 634" fill="none" xmlns="http://www.w3.org/2000/svg">
<path d="M219.373 1C339.999 1 437.746 98.7895 437.746 219.373C437.746 241.853 427.644 272.602 411.488 307.781C395.349 342.923 373.234 382.349 349.342 422.136C327.737 458.117 304.691 494.373 283.312 528.006C281.051 531.563 278.809 535.091 276.588 538.586C253.859 574.367 233.461 606.729 219.374 631.943C205.846 607.705 185.745 575.535 163.143 539.564C161.411 536.808 159.665 534.03 157.905 531.231C136.194 496.692 112.514 459.02 90.279 421.671C66.2412 381.293 43.9067 341.315 27.5843 306.101C11.241 270.842 1 240.511 1 219.373C1 98.7896 98.7896 1 219.373 1ZM318.426 211.111C318.426 156.57 273.941 112.087 219.373 112.087C164.847 112.087 120.363 156.571 120.363 211.111C120.363 265.637 164.847 310.121 219.373 310.121C273.941 310.121 318.426 265.637 318.426 211.111Z" fill="#E74C3C" stroke="white" stroke-width="2"/>
<ellipse cx="219" cy="218.5" rx="136" ry="136.5" fill="white"/>
<path d="M295.648 199.462C295.645 199.458 295.641 199.455 295.637 199.451L229.547 133.37C226.73 130.552 222.985 129 219.001 129C215.017 129 211.272 130.551 208.453 133.369L142.398 199.416C142.376 199.439 142.354 199.462 142.331 199.484C136.547 205.302 136.556 214.741 142.36 220.544C145.011 223.196 148.513 224.733 152.257 224.893C152.409 224.908 152.563 224.916 152.717 224.916H155.351V273.547C155.351 283.17 163.182 291 172.808 291H198.665C201.285 291 203.411 288.875 203.411 286.254V248.127C203.411 243.736 206.984 240.164 211.376 240.164H226.626C231.018 240.164 234.591 243.736 234.591 248.127V286.254C234.591 288.875 236.715 291 239.337 291H265.194C274.82 291 282.651 283.17 282.651 273.547V224.916H285.093C289.076 224.916 292.821 223.364 295.641 220.546C301.451 214.734 301.453 205.279 295.648 199.462V199.462Z" fill="#E74C3C"/>
</svg>
