<svg width="55" height="40" viewBox="0 0 55 40" fill="none" xmlns="http://www.w3.org/2000/svg">
<path d="M7.26933 23.6538C6.80446 23.8719 6.59936 24.421 6.80653 24.8903L8.92993 29.4486C9.03426 29.6755 9.22458 29.8523 9.45864 29.9395C9.56119 29.9767 9.66995 29.9959 9.7793 29.9959C9.91613 29.9971 10.0512 29.9678 10.1756 29.9114L26.2189 22.4178L24.7658 37.6115C24.7377 37.9106 24.853 38.2046 25.0767 38.4044C25.7801 38.9866 26.6566 39.3182 27.5686 39.3481C27.8201 39.3478 28.0702 39.3161 28.314 39.2541C29.6164 38.9142 30.6262 37.7537 31.3151 35.7715L37.6286 17.0767L50.1326 11.244C53.8132 9.52667 55.7099 6.0444 54.4362 3.32638C53.7133 1.90575 52.3287 0.939357 50.7461 0.74992C48.9877 0.484531 47.1906 0.76115 45.5935 1.54313L31.1638 8.30937L15.6495 2.24118C13.6957 1.5053 12.1483 1.52422 11.0631 2.30768C10.1526 3.05478 9.63448 4.17781 9.65665 5.35551C9.66611 5.6543 9.81653 5.93062 10.0624 6.10144L20.5092 13.2829L14.5264 16.1141L4.49427 13.5657C4.08319 13.4647 3.65525 13.65 3.4469 14.0188L0.946394 18.52C0.816655 18.7585 0.796263 19.0417 0.890538 19.2964C0.984223 19.5515 1.18341 19.7533 1.43728 19.8508L8.86432 22.9182L7.26933 23.6538ZM11.5909 4.88384C11.6465 4.48487 11.8483 4.12166 12.1575 3.86455C12.6956 3.4774 13.6771 3.53414 14.9887 4.02473L28.8048 9.41348L22.5005 12.3579L11.5909 4.88384ZM3.09788 18.5109L4.73986 15.5949L14.3941 17.9916C14.6021 18.0442 14.8217 18.0244 15.0173 17.9355L46.3959 3.27939C47.6433 2.66409 49.0483 2.44008 50.4255 2.63749C51.3913 2.72645 52.2516 3.28382 52.7283 4.12846C53.5203 5.82748 51.9634 8.30937 49.3302 9.53613L38.4587 14.6326L39.1196 12.6785C39.2865 12.1758 39.0138 11.6326 38.5111 11.466C38.0078 11.2993 37.4649 11.5721 37.2982 12.0748L29.5313 35.1861C29.0688 36.4982 28.4931 37.2817 27.8515 37.451C27.454 37.5276 27.0426 37.4496 26.7001 37.2344L28.5876 17.4159C28.637 16.8949 28.2549 16.4324 27.7332 16.383C27.2122 16.3331 26.7497 16.7158 26.7001 17.2368L26.4078 20.2661L10.2131 27.8158L8.88324 24.9845L11.5439 23.7392C11.8864 23.5881 12.1072 23.2495 12.1072 22.8756C12.1072 22.5015 11.8864 22.1628 11.5439 22.0121L3.09788 18.5109Z" fill="black"/>
</svg>
