<?xml version="1.0" encoding="utf-8"?>
<!-- Generator: Adobe Illustrator 25.0.0, SVG Export Plug-In . SVG Version: 6.00 Build 0)  -->
<svg version="1.1" id="Livello_1" xmlns="http://www.w3.org/2000/svg" xmlns:xlink="http://www.w3.org/1999/xlink" x="0px" y="0px"
	 viewBox="0 0 55 40" style="enable-background:new 0 0 55 40;" xml:space="preserve">
<style type="text/css">
	.st0{fill:#82AFC1;}
</style>
<path class="st0" d="M7.3,23.7c-0.5,0.2-0.7,0.8-0.5,1.2l2.1,4.6c0.1,0.2,0.3,0.4,0.5,0.5C9.6,30,9.7,30,9.8,30c0.1,0,0.3,0,0.4-0.1
	l16-7.5l-1.5,15.2c0,0.3,0.1,0.6,0.3,0.8c0.7,0.6,1.6,0.9,2.5,0.9c0.3,0,0.5,0,0.7-0.1c1.3-0.3,2.3-1.5,3-3.5l6.3-18.7l12.5-5.8
	c3.7-1.7,5.6-5.2,4.3-7.9c-0.7-1.4-2.1-2.4-3.7-2.6c-1.8-0.3-3.6,0-5.2,0.8L31.2,8.3L15.6,2.2c-2-0.7-3.5-0.7-4.6,0.1
	c-0.9,0.7-1.4,1.9-1.4,3c0,0.3,0.2,0.6,0.4,0.7l10.4,7.2l-6,2.8l-10-2.5c-0.4-0.1-0.8,0.1-1,0.5l-2.5,4.5c-0.1,0.2-0.2,0.5-0.1,0.8
	c0.1,0.3,0.3,0.5,0.5,0.6l7.4,3.1L7.3,23.7z M11.6,4.9c0.1-0.4,0.3-0.8,0.6-1C12.7,3.5,13.7,3.5,15,4l13.8,5.4l-6.3,2.9L11.6,4.9z
	 M3.1,18.5l1.6-2.9l9.7,2.4c0.2,0.1,0.4,0,0.6-0.1L46.4,3.3c1.2-0.6,2.7-0.8,4-0.6c1,0.1,1.8,0.6,2.3,1.5c0.8,1.7-0.8,4.2-3.4,5.4
	l-10.9,5.1l0.7-2c0.2-0.5-0.1-1-0.6-1.2c-0.5-0.2-1,0.1-1.2,0.6l-7.8,23.1c-0.5,1.3-1,2.1-1.7,2.3c-0.4,0.1-0.8,0-1.2-0.2l1.9-19.8
	c0-0.5-0.3-1-0.9-1c-0.5,0-1,0.3-1,0.9l-0.3,3l-16.2,7.5L8.9,25l2.7-1.2c0.3-0.2,0.6-0.5,0.6-0.9c0-0.4-0.2-0.7-0.6-0.9L3.1,18.5z"
	/>
</svg>
