<?xml version="1.0" encoding="utf-8"?>
<!-- Generator: Adobe Illustrator 25.0.0, SVG Export Plug-In . SVG Version: 6.00 Build 0)  -->
<svg version="1.1" id="Livello_1" xmlns="http://www.w3.org/2000/svg" xmlns:xlink="http://www.w3.org/1999/xlink" x="0px" y="0px"
	 viewBox="0 0 47 47" style="enable-background:new 0 0 47 47;" xml:space="preserve">
<style type="text/css">
	.st0{fill:#60A7C0;}
</style>
<g>
	<path class="st0" d="M0,23.4L0,23.4C0,23.5,0,23.5,0,23.4C0,23.5,0,23.4,0,23.4z"/>
	<path class="st0" d="M47,23.5L47,23.5L47,23.5L47,23.5z"/>
	<path class="st0" d="M47,23.4L47,23.4L47,23.4z"/>
	<path class="st0" d="M23.5-0.1C11.1-0.1,0.9,9.6,0.1,21.8C0,22.4,0,22.9,0,23.5c1.3,31.2,45.7,31.2,47,0c0-0.6,0-1.2-0.1-1.7
		C46,9.6,35.9-0.1,23.5-0.1z M36.4,25.7c0,0.4-0.4,0.8-0.8,0.8h-9.1v9.1c0,0.4-0.4,0.8-0.8,0.8h-4.3c-0.4,0-0.8-0.4-0.8-0.8v-9.1
		h-9.1c-0.4,0-0.8-0.4-0.8-0.8v-4.4c0-0.4,0.4-0.8,0.8-0.8h9.1v-9.1c0-0.4,0.4-0.8,0.8-0.8h4.3c0.4,0,0.8,0.4,0.8,0.8v9.1h9.1
		c0.4,0,0.8,0.4,0.8,0.8C36.4,21.3,36.4,25.7,36.4,25.7z"/>
</g>
</svg>
