<?xml version="1.0" encoding="utf-8"?>
<!-- Generator: Adobe Illustrator 25.0.0, SVG Export Plug-In . SVG Version: 6.00 Build 0)  -->
<svg version="1.1" id="Livello_1" xmlns="http://www.w3.org/2000/svg" xmlns:xlink="http://www.w3.org/1999/xlink" x="0px" y="0px"
	 viewBox="0 0 267.1 303.3" style="enable-background:new 0 0 267.1 303.3;" xml:space="preserve">
<g>
	<circle cx="116.9" cy="113.6" r="67.6"/>
	<g>
		<path d="M113.5,303.2L113.5,303.2c35.5,0,93.5,0.1,107.8,0.1c21,0-2.9-53-4.1-55c-3.8-7-16.3-31-46-42c0,0-25-9.5-57.3-9.4
			L113.5,303.2z"/>
		<path d="M116.1,303.2L116.1,303.2c-35.5,0-93.5,0.1-107.8,0.1c-21,0,2.9-53,4.1-55c3.8-7,16.3-31,46-42c0,0,25-9.5,57.3-9.4
			L116.1,303.2z"/>
	</g>
</g>
<g>
	<path d="M258.2,35.5l-27.9,0l0-25.9c0-4.9-4-8.9-8.9-8.9c-4.9,0-8.9,4-8.9,8.9v25.9l-27.1,0c-4.9,0-8.9,4-8.9,8.9
		c0,4.9,4,8.9,8.9,8.9h27.1v29.2c0,4.9,4,8.9,8.9,8.9c4.9,0,8.9-4,8.9-8.9V53.2h27.9c4.9,0,8.9-4,8.9-8.9
		C267.1,39.4,263.1,35.5,258.2,35.5z"/>
</g>
</svg>
